HIERARCHY
ROOT root
{
	OFFSET	0	13.1	24.9
	CHANNELS 6  Xposition Yposition Zposition Xrotation Yrotation Zrotation
	JOINT spine_1
	{
		OFFSET	0	9.99999	0
		CHANNELS 3  Xrotation Yrotation Zrotation
		JOINT spine_2
		{
			OFFSET	0	112	-10
			CHANNELS 3  Xrotation Yrotation Zrotation
			JOINT spine_3
			{
				OFFSET	0	206.5	19.3
				CHANNELS 3  Xrotation Yrotation Zrotation
				JOINT spine_4
				{
					OFFSET	0	110.4	14.6
					CHANNELS 3  Xrotation Yrotation Zrotation
					JOINT neck_1
					{
						OFFSET	0	71.8	-50.3
						CHANNELS 3  Xrotation Yrotation Zrotation
						JOINT neck_2
						{
							OFFSET	0	86.2	-25.8
							CHANNELS 3  Xrotation Yrotation Zrotation
							JOINT head_ee
							{
								OFFSET	0	179.8	-8.7
								CHANNELS 3  Xrotation Yrotation Zrotation
								End Site
								{
									OFFSET	1	0	0
								}
							}
						}
					}
					JOINT left_clavicle
					{
						OFFSET	-43.2	22.4	-70.8
						CHANNELS 3  Xrotation Yrotation Zrotation
						JOINT left_shoulder
						{
							OFFSET	-93.9	-5.79999	48.7
							CHANNELS 3  Xrotation Yrotation Zrotation
							JOINT left_elbow
							{
								OFFSET	-291.4	-30.8	15.2
								CHANNELS 3  Xrotation Yrotation Zrotation
								JOINT left_lowarm_twist
								{
									OFFSET	-110.7	-3.89999	13.6
									CHANNELS 3  Xrotation Yrotation Zrotation
									JOINT left_hand
									{
										OFFSET	-110.7	-3.89999	13.6
										CHANNELS 3  Xrotation Yrotation Zrotation
										JOINT left_ee
										{
											OFFSET	-80.8	-5.10001	12.1
											CHANNELS 3  Xrotation Yrotation Zrotation
											End Site
											{
												OFFSET	1	0	0
											}
										}
									}
								}
							}
						}
					}
					JOINT right_clavicle
					{
						OFFSET	43.2	22.4	-70.8
						CHANNELS 3  Xrotation Yrotation Zrotation
						JOINT right_shoulder
						{
							OFFSET	93.9	-5.79999	48.7
							CHANNELS 3  Xrotation Yrotation Zrotation
							JOINT right_elbow
							{
								OFFSET	291.4	-30.8	15.2
								CHANNELS 3  Xrotation Yrotation Zrotation
								JOINT right_lowarm_twist
								{
									OFFSET	110.7	-3.89999	13.6
									CHANNELS 3  Xrotation Yrotation Zrotation
									JOINT right_hand
									{
										OFFSET	110.7	-3.89999	13.6
										CHANNELS 3  Xrotation Yrotation Zrotation
										JOINT right_ee
										{
											OFFSET	80.8	-5.10001	12.1
											CHANNELS 3  Xrotation Yrotation Zrotation
											End Site
											{
												OFFSET	1	0	0
											}
										}
									}
								}
							}
						}
					}
				}
			}
		}
	}
	JOINT left_hip
	{
		OFFSET	-82.8	-127.5	0.300001
		CHANNELS 3  Xrotation Yrotation Zrotation
		JOINT left_knee
		{
			OFFSET	-28.2	-396.7	2.2
			CHANNELS 3  Xrotation Yrotation Zrotation
			JOINT left_ankle
			{
				OFFSET	-11.7	-411.3	35.4
				CHANNELS 3  Xrotation Yrotation Zrotation
				JOINT left_toes
				{
					OFFSET	0	-60	-88.6
					CHANNELS 3  Xrotation Yrotation Zrotation
					JOINT left_foot_ee
					{
						OFFSET	-22.5	-16.5	-42.2
						CHANNELS 3  Xrotation Yrotation Zrotation
						End Site
						{
							OFFSET	1	0	0
						}
					}
				}
			}
		}
	}
	JOINT right_hip
	{
		OFFSET	82.8	-127.5	0.300001
		CHANNELS 3  Xrotation Yrotation Zrotation
		JOINT right_knee
		{
			OFFSET	28.2	-396.7	2.2
			CHANNELS 3  Xrotation Yrotation Zrotation
			JOINT right_ankle
			{
				OFFSET	11.7	-411.3	35.4
				CHANNELS 3  Xrotation Yrotation Zrotation
				JOINT right_toes
				{
					OFFSET	0	-60	-88.6
					CHANNELS 3  Xrotation Yrotation Zrotation
					JOINT right_foot_ee
					{
						OFFSET	22.5	-16.5	-42.2
						CHANNELS 3  Xrotation Yrotation Zrotation
						End Site
						{
							OFFSET	1	0	0
						}
					}
				}
			}
		}
	}
}
MOTION
Frames: 6
Frame Time: 0.02
1175.97169468 716.715 -1774.66713549 -1.98431850311 25.671864931 -2.30377572308 2.53562 0.594802 0.893127 2.5359 0.536767 0.929162 2.54465 0.374572 1.00556 2.54363 0.528673 0.933791 -3.0496 2.7336 0.840159 -3.04163 4.31442 1.27158 -0.0 0.0 -0.0 3.84039 14.6985 7.9297 -22.6205 -17.088 65.5524 0.3547 -9.9658 0.0309256 -5.72156 -0.236386 0.69184 0.843799 -13.5766 -0.0946693 -0.0 0.0 -0.0 11.6658 24.9828 -22.7299 -14.7994 14.0493 -61.3305 1.44856 35.6601 -0.465944 -33.7689 2.31417 -3.57818 0.592531 23.5378 6.09186 0.0 0.0 0.0 38.7353 4.82543 -8.19019 -78.2557 -4.45758 10.1941 6.15891 12.8165 -0.8894 31.4788 -0.0 -0.0 -0.0 0.0 -0.0 21.6767 -25.9815 7.69267 -24.9287 -0.204674 -3.78997 4.31397 13.3628 0.671288 4.59621 -0.0 -0.0 0.0 0.0 0.0 
1178.51990479 716.715 -1776.32030059 -1.97632981558 25.1859295911 -2.32238026215 2.53562 0.594802 0.893127 2.5359 0.536767 0.929162 2.54465 0.374572 1.00556 2.54363 0.528673 0.933791 -3.0496 2.7336 0.840159 -3.04163 4.31442 1.27158 -0.0 0.0 -0.0 3.84039 14.6985 7.9297 -22.6205 -17.088 65.5524 0.3547 -9.9658 0.0309256 -5.72156 -0.236386 0.69184 0.843799 -13.5766 -0.0946693 -0.0 0.0 -0.0 11.6658 24.9828 -22.7299 -14.7994 14.0493 -61.3305 1.44856 35.6601 -0.465944 -33.7689 2.31417 -3.57818 0.592531 23.5378 6.09186 0.0 0.0 0.0 38.7353 4.82543 -8.19019 -78.2557 -4.45758 10.1941 6.15891 12.8165 -0.8894 31.4788 -0.0 -0.0 -0.0 0.0 -0.0 21.6767 -25.9815 7.69267 -24.9287 -0.204674 -3.78997 4.31397 13.3628 0.671288 4.59621 -0.0 -0.0 0.0 0.0 0.0 
1156.06268248 716.594 -1776.11884293 -2.41495731894 26.5477568804 -2.28743615088 2.85493 0.519802 1.01765 2.8554 0.453996 1.04866 2.86365 0.279224 1.10807 2.86222 0.450709 1.05007 -3.98137 2.61842 -0.153128 -3.97331 4.90297 0.257411 -0.0 0.0 -0.0 3.17597 16.0479 6.89602 -22.9487 -16.8611 67.3963 0.269374 -7.60081 0.0178937 -4.03974 -0.159735 0.490941 0.632755 -10.9513 -0.384887 -0.0 0.0 -0.0 11.712 26.9663 -22.6134 -13.2681 14.8305 -60.9795 1.4379 35.46 -0.459744 -35.2791 2.46365 -3.7014 0.354276 19.8077 6.06217 0.0 0.0 0.0 42.2703 3.28883 -7.34391 -76.4551 -4.21257 10.0624 -0.654805 12.9012 0.096264 28.3453 -0.0 -0.0 -0.0 0.0 -0.0 21.2615 -28.0387 8.93997 -23.1108 -0.245742 -3.51403 4.58693 15.1797 0.722548 3.97903 -0.0 -0.0 0.0 0.0 0.0 
1121.68308342 716.722 -1774.76203796 -3.35308868904 26.7348317703 -1.41961196607 3.37604 0.561056 0.570576 3.37607 0.523613 0.60512 3.38162 0.425485 0.677718 3.38136 0.527176 0.602018 -4.72882 3.76359 1.50111 -4.71752 5.77471 2.16951 -0.0 0.0 -0.0 2.76816 21.3956 6.44981 -23.5028 -15.0528 67.3487 0.237973 -6.72342 0.0139786 -1.19567 -0.0436601 0.146446 0.628297 -5.67868 1.8302 -0.0 0.0 -0.0 11.8168 27.4976 -22.7875 -13.4119 19.5129 -58.6363 1.42941 35.2997 -0.454824 -35.1009 2.44585 -3.68706 0.208641 16.9142 5.79804 0.0 0.0 0.0 44.2035 6.80408 -10.6255 -71.6135 -3.57552 9.67076 -6.06129 11.8055 0.899562 27.6653 -0.0 -0.0 -0.0 0.0 -0.0 20.5456 -26.3942 8.60934 -22.1561 -0.263796 -3.36865 6.27674 17.6137 1.00232 4.05249 -0.0 -0.0 0.0 0.0 0.0 
1110.73169137 714.486 -1776.6601112 -4.2780063693 26.164781819 -1.21005360432 3.55933 0.953007 0.800147 3.55923 0.900162 0.859167 3.57283 0.762373 0.983485 3.57263 0.908123 0.850747 -5.2465 3.48223 -0.0727461 -5.23834 6.46448 0.5407 -0.0 0.0 -0.0 2.00922 20.803 5.32792 -23.0349 -14.0804 68.6986 0.200477 -5.67162 0.00993063 -0.684786 -0.0246308 0.0839829 0.591268 -4.70732 1.98993 -0.0 0.0 -0.0 11.9892 27.5736 -23.1701 -10.4683 18.6567 -59.0425 1.42049 35.1308 -0.449681 -36.699 2.60714 -3.81364 -0.0194151 15.5781 6.76317 0.0 0.0 0.0 45.5095 7.9659 -11.1954 -64.8248 -2.74288 9.0347 -11.0833 12.1825 1.65769 23.4292 -0.0 -0.0 -0.0 0.0 -0.0 20.3213 -25.6593 7.91266 -20.9823 -0.282669 -3.18953 5.24142 14.3444 0.818796 4.39422 -0.0 -0.0 0.0 0.0 0.0 
1047.88391837 722.891 -1799.23306448 -0.432212767993 34.06752321 -1.58476141906 2.82514 0.368555 0.624099 2.8253 0.328096 0.646285 2.82899 0.219315 0.690818 2.82847 0.325662 0.647515 -5.19286 2.49362 -0.298019 -5.18758 4.8118 0.13506 -0.0 0.0 -0.0 4.02585 22.1438 8.2624 -28.6926 -4.14762 63.5761 0.216701 -6.12723 0.0115981 37.396 -0.220796 -4.68827 1.109 0.12179 7.4773 -0.0 0.0 -0.0 12.5531 24.4756 -24.8152 -9.75578 10.8722 -55.753 2.0163 44.9609 -0.834445 32.1444 0.00488625 4.05285 2.43892 11.2851 -11.7283 0.0 0.0 0.0 31.4421 -2.78918 -5.78061 -45.299 -0.83783 6.72359 20.0336 19.4408 -2.79912 -30.94 0.0 0.0 -0.0 0.0 -0.0 9.38258 -41.9976 8.7421 -9.90819 -0.279437 -1.49303 37.7715 -23.5767 4.90677 38.72 -0.0 -0.0 0.0 0.0 0.0 
